
<svg xmlns="http://www.w3.org/2000/svg" width="960" height="720" viewBox="0 0 960 720">
  <defs>
    <linearGradient id="g" x1="0" x2="1" y1="0" y2="1">
      <stop offset="0" stop-color="#0ea5b7"/>
      <stop offset="1" stop-color="#2563eb"/>
    </linearGradient>
    <filter id="shadow" x="-50%" y="-50%" width="200%" height="200%">
      <feDropShadow dx="0" dy="8" stdDeviation="16" flood-color="#00000022"/>
    </filter>
  </defs>
  <rect width="960" height="720" fill="#f8fafc"/>
  <!-- Card -->
  <g transform="translate(160 80)" filter="url(#shadow)">
    <rect rx="24" width="640" height="520" fill="white" stroke="#e2e8f0"/>
    <!-- Header -->
    <rect x="24" y="24" rx="10" width="96" height="24" fill="url(#g)"/>
    <text x="140" y="42" font-family="Inter, ui-sans-serif" font-size="22" fill="#0f172a" font-weight="700">Factura #0001</text>
    <text x="140" y="68" font-family="Inter, ui-sans-serif" font-size="14" fill="#475569">Fecha: 2025-08-11 · Vence: 2025-08-18</text>
    <!-- Logo -->
    <rect x="500" y="28" rx="8" width="96" height="32" fill="#e2e8f0"/>
    <!-- Bill To / Payment -->
    <text x="24" y="120" font-family="Inter" font-size="14" fill="#0f172a" font-weight="700">Facturar a</text>
    <rect x="24" y="132" rx="12" width="280" height="68" fill="#f1f5f9"/>
    <text x="40" y="168" font-family="Inter" font-size="14" fill="#0f172a">Cliente Demo S.A.</text>
    <text x="340" y="120" font-family="Inter" font-size="14" fill="#0f172a" font-weight="700">Pago</text>
    <rect x="340" y="132" rx="12" width="276" height="68" fill="#f1f5f9"/>
    <text x="356" y="168" font-family="Inter" font-size="14" fill="#0f172a">Transferencia · ES32 0000 0000 0000</text>
    <!-- Table -->
    <rect x="24" y="220" rx="12" width="592" height="160" fill="#fff" stroke="#e2e8f0"/>
    <rect x="24" y="220" rx="12" width="592" height="36" fill="#f8fafc" stroke="#e2e8f0"/>
    <text x="40" y="244" font-family="Inter" font-size="12" fill="#334155" font-weight="600">Descripción</text>
    <text x="420" y="244" font-family="Inter" font-size="12" fill="#334155" font-weight="600">Cant.</text>
    <text x="480" y="244" font-family="Inter" font-size="12" fill="#334155" font-weight="600">Precio</text>
    <text x="540" y="244" font-family="Inter" font-size="12" fill="#334155" font-weight="600">Importe</text>
    <rect x="24" y="256" width="592" height="40" fill="#ffffff"/>
    <rect x="24" y="296" width="592" height="40" fill="#f8fafc"/>
    <rect x="24" y="336" width="592" height="44" fill="#ffffff"/>
    <!-- Totals -->
    <g transform="translate(380 392)">
      <rect rx="12" width="236" height="96" fill="#fff" stroke="#e2e8f0"/>
      <text x="16" y="28" font-family="Inter" font-size="12" fill="#334155">Subtotal</text>
      <text x="172" y="28" font-family="Inter" font-size="12" fill="#0f172a" font-weight="600">350,00 €</text>
      <text x="16" y="52" font-family="Inter" font-size="12" fill="#334155">IVA (21%)</text>
      <text x="172" y="52" font-family="Inter" font-size="12" fill="#0f172a" font-weight="600">73,50 €</text>
      <rect x="16" y="64" width="204" height="1" fill="#e2e8f0"/>
      <text x="16" y="86" font-family="Inter" font-size="14" fill="#0f172a" font-weight="700">Total</text>
      <text x="160" y="86" font-family="Inter" font-size="14" fill="#0ea5b7" font-weight="800">423,50 €</text>
    </g>
  </g>
  <!-- Decoration -->
  <circle cx="820" cy="640" r="80" fill="#e2e8f0"/>
</svg>
